<svg xmlns="http://www.w3.org/2000/svg" version="1.1" xmlns:xlink="http://www.w3.org/1999/xlink" width="512" height="512" x="0" y="0" viewBox="0 0 24 24" style="enable-background:new 0 0 512 512" xml:space="preserve" class=""><g><path d="M24 24c-1.8 0-2.67-1.3-3.25-2.17-.39-.59-.58-.83-.75-.83-.28 0-.63.38-1.12.97-.72.86-1.72 2.03-3.41 2.03s-2.68-1.18-3.39-2.05c-.47-.57-.8-.95-1.07-.95s-.58.31-1.08.83C9.08 22.7 7.79 24 5.51 24c-3.03 0-5.5-2.47-5.5-5.5S2.48 13 5.51 13h.5v3h-.5a2.5 2.5 0 0 0 0 5c.98 0 1.48-.46 2.28-1.28.75-.77 1.69-1.72 3.22-1.72 1.71 0 2.68 1.18 3.39 2.05.47.57.8.95 1.07.95s.63-.38 1.12-.97C17.31 19.17 18.31 18 20 18c1.8 0 2.67 1.3 3.25 2.17.39.59.58.83.75.83v3ZM21.67 6.09l1.55-1.55c1.04-1.04 1.04-2.72 0-3.76s-2.72-1.04-3.76 0l-1.55 1.55 3.76 3.76Zm-5.88-1.64L8 12.24V16h3.76l7.79-7.79-3.76-3.76Z" fill="#071952" opacity="1" data-original="#000000"></path></g></svg>