<svg xmlns="http://www.w3.org/2000/svg" version="1.1" xmlns:xlink="http://www.w3.org/1999/xlink" width="512" height="512" x="0" y="0" viewBox="0 0 24 24" style="enable-background:new 0 0 512 512" xml:space="preserve" class=""><g><path d="M23.074 3.842a1.5 1.5 0 0 0-1.635.325l-3.711 3.712-4.667-4.667a1.5 1.5 0 0 0-2.122 0L6.272 7.879 2.561 4.167A1.5 1.5 0 0 0 0 5.228V16.5A5.507 5.507 0 0 0 5.5 22h13a5.507 5.507 0 0 0 5.5-5.5V5.228a1.5 1.5 0 0 0-.926-1.386ZM21 16.5a2.5 2.5 0 0 1-2.5 2.5h-13A2.5 2.5 0 0 1 3 16.5V8.849l2.212 2.212a1.5 1.5 0 0 0 2.121 0L12 6.394l4.667 4.667a1.5 1.5 0 0 0 2.121 0L21 8.849Z" fill="#071952" opacity="1" data-original="#000000"></path></g></svg>