<svg xmlns="http://www.w3.org/2000/svg" version="1.1" xmlns:xlink="http://www.w3.org/1999/xlink" width="512" height="512" x="0" y="0" viewBox="0 0 24 24" style="enable-background:new 0 0 512 512" xml:space="preserve" class=""><g><path d="M18.5 1h-13A5.506 5.506 0 0 0 0 6.5v11A5.506 5.506 0 0 0 5.5 23h13a5.506 5.506 0 0 0 5.5-5.5v-11A5.506 5.506 0 0 0 18.5 1Zm0 3a2.476 2.476 0 0 1 1.643.631l-6.5 6.5a2.373 2.373 0 0 1-3.278 0l-6.5-6.5A2.476 2.476 0 0 1 5.5 4Zm0 16h-13A2.5 2.5 0 0 1 3 17.5V8.017l5.239 5.239a5.317 5.317 0 0 0 7.521 0L21 8.017V17.5a2.5 2.5 0 0 1-2.5 2.5Z" fill="#071952" opacity="1" data-original="#000000" class=""></path></g></svg>