<svg xmlns="http://www.w3.org/2000/svg" version="1.1" xmlns:xlink="http://www.w3.org/1999/xlink" width="512" height="512" x="0" y="0" viewBox="0 0 508.779 508.779" style="enable-background:new 0 0 512 512" xml:space="preserve"><g><path d="M403.723 180.395v-31.061C403.723 66.859 336.864 0 254.389 0S105.056 66.859 105.056 149.333v31.061c-39.236 20.023-63.952 60.334-64 104.384v106.667c.071 64.772 52.561 117.263 117.333 117.333h192c64.772-.071 117.263-52.561 117.333-117.333V284.779c-.047-44.05-24.763-84.362-63.999-104.384zM254.389 64c47.128 0 85.333 38.205 85.333 85.333v18.112H169.056v-18.112c0-47.128 38.205-85.333 85.333-85.333zm149.334 327.445c0 29.455-23.878 53.333-53.333 53.333h-192c-29.455 0-53.333-23.878-53.333-53.333V284.779c0-29.455 23.878-53.333 53.333-53.333h192c29.455 0 53.333 23.878 53.333 53.333v106.666z" fill="#071952" opacity="1" data-original="#000000"></path><path d="M243.723 295.445h21.333c17.673 0 32 14.327 32 32 0 17.673-14.327 32-32 32h-21.333c-17.673 0-32-14.327-32-32 0-17.673 14.327-32 32-32z" fill="#071952" opacity="1" data-original="#000000"></path></g></svg>