<svg xmlns="http://www.w3.org/2000/svg" xmlns:xlink="http://www.w3.org/1999/xlink" width="500" zoomAndPan="magnify" viewBox="0 0 375 374.999991" height="500" preserveAspectRatio="xMidYMid meet" version="1.0"><defs><clipPath id="7884287b5e"><path d="M 147.976562 120.070312 L 227.023438 120.070312 L 227.023438 199.117188 L 147.976562 199.117188 Z M 147.976562 120.070312 " clip-rule="nonzero"/></clipPath><clipPath id="59184b241b"><path d="M 231.132812 120.070312 L 310.183594 120.070312 L 310.183594 199.117188 L 231.132812 199.117188 Z M 231.132812 120.070312 " clip-rule="nonzero"/></clipPath><clipPath id="739caa2b78"><path d="M 147.976562 37.5 L 227.023438 37.5 L 227.023438 116.546875 L 147.976562 116.546875 Z M 147.976562 37.5 " clip-rule="nonzero"/></clipPath><clipPath id="3ac0b48e0e"><path d="M 231.132812 37.5 L 310.183594 37.5 L 310.183594 116.546875 L 231.132812 116.546875 Z M 231.132812 37.5 " clip-rule="nonzero"/></clipPath><clipPath id="33920fc9c3"><path d="M 201.71875 91.246094 L 252.328125 91.246094 L 252.328125 141.851562 L 201.71875 141.851562 Z M 201.71875 91.246094 " clip-rule="nonzero"/></clipPath><clipPath id="326a108ef2"><path d="M 65.179688 116.546875 L 144.226562 116.546875 L 144.226562 195.59375 L 65.179688 195.59375 Z M 65.179688 116.546875 " clip-rule="nonzero"/></clipPath><clipPath id="561e3ce78f"><path d="M 147.976562 202.867188 L 227.023438 202.867188 L 227.023438 281.917969 L 147.976562 281.917969 Z M 147.976562 202.867188 " clip-rule="nonzero"/></clipPath><clipPath id="54d52932d3"><path d="M 227.023438 285.667969 L 306.070312 285.667969 L 306.070312 364.714844 L 227.023438 364.714844 Z M 227.023438 285.667969 " clip-rule="nonzero"/></clipPath></defs><g clip-path="url(#7884287b5e)"><path fill="#ffffff" d="M 147.976562 120.070312 L 227.023438 120.070312 L 227.023438 199.117188 L 147.976562 199.117188 Z M 147.976562 120.070312 " fill-opacity="1" fill-rule="nonzero"/></g><g clip-path="url(#59184b241b)"><path fill="#ffffff" d="M 231.132812 120.070312 L 310.183594 120.070312 L 310.183594 199.117188 L 231.132812 199.117188 Z M 231.132812 120.070312 " fill-opacity="1" fill-rule="nonzero"/></g><g clip-path="url(#739caa2b78)"><path fill="#ffffff" d="M 147.976562 37.5 L 227.023438 37.5 L 227.023438 116.546875 L 147.976562 116.546875 Z M 147.976562 37.5 " fill-opacity="1" fill-rule="nonzero"/></g><g clip-path="url(#3ac0b48e0e)"><path fill="#071952" d="M 231.132812 37.5 L 310.183594 37.5 L 310.183594 116.546875 L 231.132812 116.546875 Z M 231.132812 37.5 " fill-opacity="1" fill-rule="nonzero"/></g><g clip-path="url(#33920fc9c3)"><path fill="#071952" d="M 201.71875 91.246094 L 252.328125 91.246094 L 252.328125 141.851562 L 201.71875 141.851562 Z M 201.71875 91.246094 " fill-opacity="1" fill-rule="nonzero"/></g><g clip-path="url(#326a108ef2)"><path fill="#ffffff" d="M 65.179688 116.546875 L 144.226562 116.546875 L 144.226562 195.59375 L 65.179688 195.59375 Z M 65.179688 116.546875 " fill-opacity="1" fill-rule="nonzero"/></g><g clip-path="url(#561e3ce78f)"><path fill="#ffffff" d="M 147.976562 202.867188 L 227.023438 202.867188 L 227.023438 281.917969 L 147.976562 281.917969 Z M 147.976562 202.867188 " fill-opacity="1" fill-rule="nonzero"/></g><g clip-path="url(#54d52932d3)"><path fill="#ffffff" d="M 227.023438 285.667969 L 306.070312 285.667969 L 306.070312 364.714844 L 227.023438 364.714844 Z M 227.023438 285.667969 " fill-opacity="1" fill-rule="nonzero"/></g></svg>